<svg xmlns="http://www.w3.org/2000/svg" viewBox="0 0 64 64" role="img" aria-label="Miraidon Blogs">
  <defs>
    <linearGradient id="bg" x1="8" y1="6" x2="56" y2="58" gradientUnits="userSpaceOnUse">
      <stop offset="0" stop-color="#151a42"/>
      <stop offset=".52" stop-color="#6f4dff"/>
      <stop offset="1" stop-color="#35d8ff"/>
    </linearGradient>
    <linearGradient id="face" x1="14" y1="10" x2="50" y2="56" gradientUnits="userSpaceOnUse">
      <stop offset="0" stop-color="#b9b6ff"/>
      <stop offset=".45" stop-color="#7058ff"/>
      <stop offset="1" stop-color="#311f82"/>
    </linearGradient>
    <radialGradient id="glow" cx="36" cy="24" r="31" gradientUnits="userSpaceOnUse">
      <stop offset="0" stop-color="#eaffff" stop-opacity=".95"/>
      <stop offset=".38" stop-color="#69e7ff" stop-opacity=".5"/>
      <stop offset="1" stop-color="#0b1029" stop-opacity="0"/>
    </radialGradient>
    <filter id="soft" x="-20%" y="-20%" width="140%" height="140%">
      <feGaussianBlur stdDeviation="1.2"/>
    </filter>
  </defs>
  <rect width="64" height="64" rx="14" fill="#070918"/>
  <rect x="3" y="3" width="58" height="58" rx="13" fill="url(#bg)" opacity=".95"/>
  <circle cx="38" cy="24" r="25" fill="url(#glow)" filter="url(#soft)"/>
  <path d="M17 14c5.5 1.1 9.7 3.7 12.6 7.8L24 27.2c-5.1-1.4-8.4-5.8-9.8-13 .9-.4 1.8-.5 2.8-.2Z" fill="#7ff2ff"/>
  <path d="M47 14c-5.5 1.1-9.7 3.7-12.6 7.8l5.6 5.4c5.1-1.4 8.4-5.8 9.8-13-.9-.4-1.8-.5-2.8-.2Z" fill="#7ff2ff"/>
  <path d="M15.2 35.4c0-13.6 8.1-23.3 16.8-23.3s16.8 9.7 16.8 23.3c0 12.1-6.6 20.2-16.8 20.2s-16.8-8.1-16.8-20.2Z" fill="url(#face)" stroke="#d7fbff" stroke-width="2.2"/>
  <path d="M20 42.5c3.9 3.9 7.9 5.9 12 5.9s8.1-2 12-5.9c-1.3 7.8-5.4 12.1-12 12.1S21.3 50.3 20 42.5Z" fill="#20145e" opacity=".66"/>
  <path d="M19.6 31.8c1.9-4.4 5.2-6.6 9.8-6.6" fill="none" stroke="#1ae8ff" stroke-width="3.2" stroke-linecap="round"/>
  <path d="M44.4 31.8c-1.9-4.4-5.2-6.6-9.8-6.6" fill="none" stroke="#1ae8ff" stroke-width="3.2" stroke-linecap="round"/>
  <circle cx="25.5" cy="35.2" r="6.3" fill="#f8ffff"/>
  <circle cx="38.5" cy="35.2" r="6.3" fill="#f8ffff"/>
  <circle cx="27.4" cy="35.9" r="3.2" fill="#10213f"/>
  <circle cx="36.6" cy="35.9" r="3.2" fill="#10213f"/>
  <circle cx="28.5" cy="34.3" r="1.1" fill="#ffffff"/>
  <circle cx="37.7" cy="34.3" r="1.1" fill="#ffffff"/>
  <path d="M28 44.2c1.8 1.5 4.2 1.5 6 0" fill="none" stroke="#f7fbff" stroke-width="2.3" stroke-linecap="round"/>
  <path d="M11 36.5c2.8 1.7 5.7 2.2 8.5 1.5" fill="none" stroke="#78f4ff" stroke-width="3" stroke-linecap="round"/>
  <path d="M53 36.5c-2.8 1.7-5.7 2.2-8.5 1.5" fill="none" stroke="#78f4ff" stroke-width="3" stroke-linecap="round"/>
</svg>
